<mxfile host="app.diagrams.net" modified="2023-06-25T21:03:19.786Z" agent="Mozilla/5.0 (Windows NT 10.0; Win64; x64; rv:109.0) Gecko/20100101 Firefox/114.0" etag="iAhR4o5UdSvAKh0z7Moe" version="21.5.0" type="device">
  <diagram name="Page-1" id="gL6UpZue4-Y7gqrIG5FI">
    <mxGraphModel dx="2074" dy="754" grid="1" gridSize="10" guides="1" tooltips="1" connect="1" arrows="1" fold="1" page="1" pageScale="1" pageWidth="850" pageHeight="1100" math="0" shadow="0">
      <root>
        <mxCell id="0" />
        <mxCell id="1" parent="0" />
        <mxCell id="ZMqs0MVgqctCKB6G0gvM-1" value="@Configuration&lt;br&gt;RootConfig" style="rounded=0;whiteSpace=wrap;html=1;" parent="1" vertex="1">
          <mxGeometry x="390" y="30" width="120" height="60" as="geometry" />
        </mxCell>
        <mxCell id="ZMqs0MVgqctCKB6G0gvM-3" value="@Configuration&lt;br&gt;@Order(20)&lt;br&gt;EnableBConfig" style="rounded=0;whiteSpace=wrap;html=1;" parent="1" vertex="1">
          <mxGeometry x="580" y="170" width="120" height="60" as="geometry" />
        </mxCell>
        <mxCell id="ZMqs0MVgqctCKB6G0gvM-7" value="" style="endArrow=none;html=1;rounded=0;exitX=1;exitY=1;exitDx=0;exitDy=0;entryX=0.5;entryY=0;entryDx=0;entryDy=0;" parent="1" source="ZMqs0MVgqctCKB6G0gvM-1" target="ZMqs0MVgqctCKB6G0gvM-3" edge="1">
          <mxGeometry width="50" height="50" relative="1" as="geometry">
            <mxPoint x="460" y="410" as="sourcePoint" />
            <mxPoint x="510" y="360" as="targetPoint" />
          </mxGeometry>
        </mxCell>
        <mxCell id="ZMqs0MVgqctCKB6G0gvM-8" value="&lt;div&gt;static nested&lt;/div&gt;&lt;div&gt;class&lt;/div&gt;" style="edgeLabel;html=1;align=center;verticalAlign=middle;resizable=0;points=[];" parent="ZMqs0MVgqctCKB6G0gvM-7" vertex="1" connectable="0">
          <mxGeometry x="-0.2125" y="2" relative="1" as="geometry">
            <mxPoint as="offset" />
          </mxGeometry>
        </mxCell>
        <mxCell id="ZMqs0MVgqctCKB6G0gvM-11" value="@Configuration&lt;br&gt;BConfig" style="rounded=0;whiteSpace=wrap;html=1;" parent="1" vertex="1">
          <mxGeometry x="580" y="310" width="120" height="60" as="geometry" />
        </mxCell>
        <mxCell id="ZMqs0MVgqctCKB6G0gvM-15" value="classpath scan" style="endArrow=none;html=1;rounded=0;exitX=0.5;exitY=1;exitDx=0;exitDy=0;entryX=0.5;entryY=0;entryDx=0;entryDy=0;" parent="1" source="ZMqs0MVgqctCKB6G0gvM-3" target="ZMqs0MVgqctCKB6G0gvM-11" edge="1">
          <mxGeometry width="50" height="50" relative="1" as="geometry">
            <mxPoint x="460" y="420" as="sourcePoint" />
            <mxPoint x="510" y="370" as="targetPoint" />
          </mxGeometry>
        </mxCell>
        <mxCell id="ZMqs0MVgqctCKB6G0gvM-44" value="@Configuration&lt;br&gt;@Order(10)&lt;br&gt;EnableAConfig" style="rounded=0;whiteSpace=wrap;html=1;" parent="1" vertex="1">
          <mxGeometry x="160" y="170" width="120" height="60" as="geometry" />
        </mxCell>
        <mxCell id="ZMqs0MVgqctCKB6G0gvM-46" value="@Configuration&lt;br&gt;AConfig" style="rounded=0;whiteSpace=wrap;html=1;" parent="1" vertex="1">
          <mxGeometry x="160" y="310" width="120" height="60" as="geometry" />
        </mxCell>
        <mxCell id="ZMqs0MVgqctCKB6G0gvM-47" value="classpath scan" style="endArrow=none;html=1;rounded=0;exitX=0.5;exitY=1;exitDx=0;exitDy=0;entryX=0.5;entryY=0;entryDx=0;entryDy=0;" parent="1" source="ZMqs0MVgqctCKB6G0gvM-44" target="ZMqs0MVgqctCKB6G0gvM-46" edge="1">
          <mxGeometry width="50" height="50" relative="1" as="geometry">
            <mxPoint x="40" y="420" as="sourcePoint" />
            <mxPoint x="90" y="370" as="targetPoint" />
          </mxGeometry>
        </mxCell>
        <mxCell id="ZMqs0MVgqctCKB6G0gvM-52" value="" style="endArrow=none;html=1;rounded=0;entryX=0;entryY=1;entryDx=0;entryDy=0;exitX=0.5;exitY=0;exitDx=0;exitDy=0;" parent="1" source="ZMqs0MVgqctCKB6G0gvM-44" target="ZMqs0MVgqctCKB6G0gvM-1" edge="1">
          <mxGeometry width="50" height="50" relative="1" as="geometry">
            <mxPoint x="230" y="550" as="sourcePoint" />
            <mxPoint x="280" y="500" as="targetPoint" />
          </mxGeometry>
        </mxCell>
        <mxCell id="ZMqs0MVgqctCKB6G0gvM-53" value="static nested&lt;br&gt;class" style="edgeLabel;html=1;align=center;verticalAlign=middle;resizable=0;points=[];" parent="ZMqs0MVgqctCKB6G0gvM-52" vertex="1" connectable="0">
          <mxGeometry x="0.1681" y="2" relative="1" as="geometry">
            <mxPoint as="offset" />
          </mxGeometry>
        </mxCell>
        <mxCell id="ZMqs0MVgqctCKB6G0gvM-65" value="a1" style="rounded=0;whiteSpace=wrap;html=1;" parent="1" vertex="1">
          <mxGeometry x="160" y="470" width="120" height="60" as="geometry" />
        </mxCell>
        <mxCell id="ZMqs0MVgqctCKB6G0gvM-67" value="b1" style="rounded=0;whiteSpace=wrap;html=1;" parent="1" vertex="1">
          <mxGeometry x="580" y="480" width="120" height="60" as="geometry" />
        </mxCell>
        <mxCell id="ZMqs0MVgqctCKB6G0gvM-69" value="" style="endArrow=none;html=1;rounded=0;exitX=0.5;exitY=0;exitDx=0;exitDy=0;entryX=0.5;entryY=1;entryDx=0;entryDy=0;" parent="1" source="ZMqs0MVgqctCKB6G0gvM-65" target="ZMqs0MVgqctCKB6G0gvM-46" edge="1">
          <mxGeometry width="50" height="50" relative="1" as="geometry">
            <mxPoint x="450" y="430" as="sourcePoint" />
            <mxPoint x="140" y="530" as="targetPoint" />
          </mxGeometry>
        </mxCell>
        <mxCell id="ZMqs0MVgqctCKB6G0gvM-72" value="@Bean" style="edgeLabel;html=1;align=center;verticalAlign=middle;resizable=0;points=[];" parent="ZMqs0MVgqctCKB6G0gvM-69" vertex="1" connectable="0">
          <mxGeometry x="0.3143" y="3" relative="1" as="geometry">
            <mxPoint as="offset" />
          </mxGeometry>
        </mxCell>
        <mxCell id="ZMqs0MVgqctCKB6G0gvM-71" value="@Bean" style="endArrow=none;html=1;rounded=0;exitX=0.5;exitY=0;exitDx=0;exitDy=0;entryX=0.5;entryY=1;entryDx=0;entryDy=0;" parent="1" source="ZMqs0MVgqctCKB6G0gvM-67" target="ZMqs0MVgqctCKB6G0gvM-11" edge="1">
          <mxGeometry width="50" height="50" relative="1" as="geometry">
            <mxPoint x="450" y="430" as="sourcePoint" />
            <mxPoint x="560" y="530" as="targetPoint" />
          </mxGeometry>
        </mxCell>
      </root>
    </mxGraphModel>
  </diagram>
</mxfile>
